<?xml version="1.0" encoding="UTF-8"?>
<svg width="1200pt" height="1200pt" version="1.1" viewBox="0 0 1200 1200" xmlns="http://www.w3.org/2000/svg">
 <path d="m399.74 701.81-7.875-4.125-39.75-20.812s0-0.1875-0.1875-0.1875l-76.125-39.938-45.562 45.562 121.87 63.938c1.3125 0.75 2.4375 1.6875 3 3l63.938 121.87 45.562-45.562-62.062-118.12-3-5.8125z"/>
 <path d="m309.19 739.69-104.44 119.44 37.688 37.688 119.44-104.25-18.188-34.688z"/>
 <path d="m367.31 668.44 33.938 17.812 7.125 3.75s0.5625 0.75 0.9375 0.9375c0.75 0.5625 1.5 1.125 2.0625 2.0625l2.8125 5.25 19.125 36.188 156.19-144.56-80.438-74.438z"/>
 <path d="m99.891 867.61 46.547-46.547 134.06 134.06-46.547 46.547z"/>
 <path d="m896.81 305.26 8.8125-109.12-109.12 8.625-186.74 201.74 81.938 88.688z"/>
 <path d="m995.26 859.13-104.44-119.44-34.688 18.188-18 34.5 119.44 104.44z"/>
 <path d="m766.69 734.63 21.938-41.438 0.375-0.375c0.5625-1.125 1.5-2.0625 2.625-2.625l41.062-21.75-146.26-157.87s-0.1875 0-0.1875-0.1875l-91.312-98.812-191.26-206.63-109.12-8.625 8.8125 109.12 463.5 429.37z"/>
 <path d="m919.4 955.13 134.06-134.06 46.547 46.547-134.06 134.06z"/>
 <path d="m847.5 746.26 121.87-64.125-45.375-45.375-75.938 39.562-0.5625 0.5625-47.438 24.75-24.938 47.438s-0.375 0.75-0.5625 0.9375l-39.562 75.375 45.562 45.562 63.938-121.87c0.75-1.3125 1.6875-2.4375 3-3z"/>
</svg>
