<?xml version="1.0" encoding="UTF-8"?>
<svg width="1200pt" height="1200pt" version="1.1" viewBox="0 0 1200 1200" xmlns="http://www.w3.org/2000/svg">
 <path d="m889.26 12.703c7.5469-16.031 31.453-16.781 41.578-2.9531 83.766 96.516 138.79 216.52 163.26 341.63 3.8438 22.172 8.4844 44.531 7.8281 67.172-1.0312 16.734-23.438 26.531-36.422 15.797-60.469-48.703-120.37-98.203-180.84-147-78.516 36.562-156.47 74.25-235.08 110.67 1.4531 7.7344 3.3281 15.422 4.9219 23.156 26.344 1.0312 52.734-0.1875 79.078 0.23438 18.844 0.9375 34.781 20.016 31.125 38.812-2.4375 15.844-17.578 27.375-33.188 27.844-14.484 0.51562-28.969-0.28125-43.406 0.23438 39.141 142.78 77.484 285.74 116.81 428.48 86.531 10.031 174.14 23.578 255.1 57.094 26.156 11.625 53.156 25.266 70.359 49.031 9.2344 11.812 12.516 28.312 7.2188 42.562-6.2344 17.297-20.906 29.672-35.438 40.078-32.344 21.75-69.562 34.875-106.55 46.312-127.03 37.172-260.16 47.062-391.97 48.188-108.09-0.60938-216.61-7.3594-322.64-29.391-55.453-11.484-111.05-25.969-161.63-52.172-25.781-14.859-56.812-34.641-59.156-67.406 0.84375-33.938 33.656-54.047 60.375-68.25 85.922-40.781 181.13-57.094 275.02-66.562 37.5-142.6 75.844-284.9 113.2-427.5-17.156 0.28125-34.453-0.65625-51.516 0.79688-68.344 31.781-136.18 64.828-204.47 96.75-0.23438 65.672 0.1875 131.34 0.1875 197.02 42.328 0.046875 84.609-0.046875 126.89-0.046875 0.046875 23.438 0.09375 46.828-0.23438 70.219-22.078 0-44.109 0.14062-66.188-0.1875-0.46875 20.109-0.1875 40.266-0.375 60.375-62.625-0.23438-125.21 0.1875-187.82-0.046875-0.046874-19.969-0.375-39.938 0.14063-59.906-21.891-0.1875-43.828-0.1875-65.719-0.28125-0.1875-23.344 0-46.688-0.046876-70.078 42.422-0.60938 84.891 0.51562 127.31-0.79688-0.98438-55.219-0.70312-110.48 0.046875-165.71-17.016 6.3281-35.203-8.8594-33.328-26.484-2.9062-40.453 12.609-86.484 49.781-106.97 203.76-96.328 406.78-194.29 610.87-289.92 2.6719-1.3125 5.5781-2.9062 6.2812-6.0938 22.594-58.312 44.062-117.09 68.438-174.71m-332.39 549.14c23.344-10.781 46.688-21.562 69.938-32.438 9.6562-2.625 2.6719-15.516-0.14062-21-18.328-0.84375-36.703-0.1875-55.031-0.79688-5.6719 17.906-10.078 36.094-14.766 54.234m-20.531 80.203c-5.5312 19.594-10.828 39.328-16.547 58.875 47.719-21.562 95.062-44.016 142.31-66.609-4.5469-14.906-8.4375-30-12.609-44.953-38.062 16.781-75.234 35.531-113.11 52.734m-36.516 139.69c-6 19.688-11.438 39.609-16.922 59.438 69.656-32.859 139.26-65.812 208.92-98.672-3.7969-15.328-8.4844-30.375-12.469-45.656-60.375 27.094-119.53 56.812-179.48 84.844m-4.0781 125.16c80.391-2.5781 160.97-3.0938 241.26 2.5781-9.9375-34.406-19.031-69-28.969-103.41-70.828 33.469-142.4 65.531-212.29 100.88z"/>
 <path d="m963.28 547.64c11.625-19.969 23.391-39.938 37.828-58.031 11.766 16.547 23.062 33.469 33.656 50.812 7.6406 13.406 16.641 27.422 16.312 43.5-0.5625 22.5-19.031 42.328-40.969 46.078-25.172 5.1094-53.156-12.422-57.984-37.969-2.9062-15.75 3.4219-31.125 11.203-44.438z"/>
 <path d="m938.34 780.14c12.984-32.531 34.734-60.703 54.375-89.484 16.969 22.641 33.469 45.703 47.953 70.078 7.7344 12.891 13.969 27.891 10.969 43.219-4.7344 30.75-37.641 52.781-67.922 47.109-32.344-3.8438-57.328-39.562-45.328-70.922z"/>
</svg>
