<?xml version="1.0" encoding="UTF-8"?>
<svg width="1200pt" height="1200pt" version="1.1" viewBox="0 0 1200 1200" xmlns="http://www.w3.org/2000/svg">
 <path d="m944.53 538.31c21.938-50.578-41.016-100.03-84.938-66.656l-112.27 80.203c-5.3438-4.2188-10.875-8.0625-16.453-11.859v-239.9c0-103.41-84.141-187.5-187.5-187.5h-150c-103.36 0-187.5 84.094-187.5 187.5v239.68c-240.98 165.14-127.36 545.48 168.74 547.82h187.5c165.42 0 300-134.58 300-300 0-11.484-0.84375-23.297-2.5781-36.891l84.938-212.34zm-335.48-50.812h-281.26c-12.188-0.046875-12.328-18.703 0-18.75h281.26c12.141 0.046875 12.328 18.703 0 18.75zm-270.56-56.25c24.422-149.06 235.45-148.97 259.82 0zm354.94 86.953c-14.109-6.8906-28.688-12.656-43.688-17.297 12.094-19.5 5.3906-47.906-13.078-60.469-4.6406-82.359-68.391-149.11-149.53-158.11v-19.875c0-10.359-8.3906-18.75-18.75-18.75s-18.75 8.3906-18.75 18.75v19.875c-81.141 9-144.89 75.75-149.53 158.11-18.328 12.516-25.078 40.688-13.219 60.188-15.094 4.6406-29.531 10.641-43.547 17.484v-218.16c0-82.688 67.312-150 150-150h150c82.688 0 150 67.312 150 150v218.21z"/>
 <path d="m1087.2 750h-168.74c-20.672 0-37.5 16.828-37.5 37.5v168.74c0 51.703 42.047 93.75 93.75 93.75h56.25c51.703 0 93.75-42.047 93.75-93.75v-168.74c0-20.672-16.828-37.5-37.5-37.5z"/>
 <path d="m998.53 725.26c19.641 14.578 42.047-15.234 22.453-30.047-26.625-20.719-9.6094-50.859 4.6406-74.531 15.797-26.25 21.328-83.531-16.406-74.766-9.6094 3.8906-14.203 14.859-10.266 24.469 4.875 13.219-4.9688 30.281-11.766 42.422-23.953 33.703-25.828 85.969 11.344 112.45z"/>
</svg>
