<?xml version="1.0" encoding="UTF-8"?>
<svg width="1200pt" height="1200pt" version="1.1" viewBox="0 0 1200 1200" xmlns="http://www.w3.org/2000/svg">
 <path d="m600 898.81c-165.55 0-339.28-23.617-405.21-68.105-5.2305 5.2773-7.9023 10.375-7.9023 15.199v13.562c0 15.922 30.543 40.035 116.27 59.973 79.176 18.41 184.6 28.551 296.84 28.551s217.67-10.141 296.84-28.551c85.723-19.938 116.27-44.055 116.27-59.973v-13.562c0-4.8242-2.6719-9.918-7.9062-15.199-65.93 44.488-239.66 68.105-405.21 68.105z"/>
 <path d="m600 967.66c-165.55 0-339.28-23.617-405.21-68.105-5.2305 5.2812-7.9023 10.375-7.9023 15.199v147.54c0 15.922 30.543 40.035 116.27 59.973 79.172 18.414 184.59 28.555 296.84 28.555s217.67-10.141 296.84-28.551c85.727-19.938 116.27-44.051 116.27-59.973v-147.54c0-4.8242-2.6719-9.918-7.9062-15.199-65.93 44.484-239.66 68.102-405.21 68.102z"/>
 <path d="m600 19.672c164.76 0 313.84 19.887 392.74 52.133 0.47656-1.0742 0.70312-2.0664 0.70312-2.9531 0-8.5664-21.234-27.48-100.75-44.086-80.551-16.008-183.54-24.766-292.7-24.766s-212.14 8.7578-292.7 24.766c-79.516 16.605-100.75 35.52-100.75 44.086 0 0.88672 0.23047 1.875 0.70703 2.957 78.891-32.25 227.97-52.137 392.73-52.137z"/>
 <path d="m600 829.95c-165.55 0-339.28-23.617-405.21-68.105-5.2305 5.2812-7.9023 10.375-7.9023 15.203v13.562c0 15.922 30.543 40.035 116.27 59.973 79.176 18.41 184.6 28.551 296.84 28.551s217.67-10.141 296.84-28.551c85.723-19.941 116.27-44.055 116.27-59.977v-13.559c0-4.8242-2.6719-9.918-7.9023-15.199-65.934 44.484-239.66 68.102-405.21 68.102z"/>
 <path d="m186.89 1096.5v14.945c0 15.922 30.543 40.035 116.27 59.973 79.172 18.41 184.59 28.551 296.84 28.551s217.67-10.141 296.84-28.551c85.727-19.938 116.27-44.051 116.27-59.973v-14.945c-58.867 48.27-240.44 73.961-413.11 73.961s-354.25-25.691-413.11-73.961z"/>
 <path d="m224.2 86.359c15.969 8.8516 44.52 19.113 92.527 28.48 75.566 14.742 176.17 22.863 283.27 22.863s207.71-8.1211 283.28-22.867c48.012-9.3672 76.559-19.633 92.527-28.484-78.246-28.77-222.25-47.008-375.8-47.008s-297.56 18.238-375.8 47.016z"/>
 <path d="m600 761.1c-165.55 0-339.28-23.617-405.21-68.105-5.2305 5.2812-7.9023 10.375-7.9023 15.199v13.562c0 15.922 30.543 40.035 116.27 59.973 79.176 18.41 184.6 28.551 296.84 28.551s217.67-10.141 296.84-28.551c85.723-19.938 116.27-44.051 116.27-59.973v-13.562c0-4.8242-2.6719-9.918-7.9023-15.199-65.934 44.488-239.66 68.105-405.21 68.105z"/>
 <path d="m600 354.1c-168.41 0-345.27-24.438-408.53-70.422-3.0234 3.9414-4.5859 7.7656-4.5859 11.406v13.562c0 15.922 30.543 40.035 116.27 59.973 79.176 18.41 184.6 28.551 296.84 28.551s217.67-10.141 296.84-28.551c85.723-19.938 116.27-44.055 116.27-59.973v-13.562c0-3.6406-1.5625-7.4648-4.5898-11.406-63.254 45.984-240.12 70.422-408.52 70.422z"/>
 <path d="m600 692.25c-165.55 0-339.27-23.617-405.21-68.102-5.2305 5.2773-7.9023 10.375-7.9023 15.195v13.562c0 15.922 30.543 40.035 116.27 59.973 79.176 18.41 184.6 28.551 296.84 28.551s217.67-10.141 296.84-28.551c85.723-19.938 116.27-44.055 116.27-59.973v-13.562c0-4.8242-2.6719-9.918-7.9062-15.199-65.93 44.488-239.66 68.105-405.21 68.105z"/>
 <path d="m1013.1 68.852c0 64.949-247.05 88.523-413.11 88.523-166.06 0.003906-413.11-23.574-413.11-88.523-11.617-1.6758-16.797 7.1211-19.672 19.672 0 15.883 32.035 39.973 121.94 59.949 82.922 18.43 193.31 28.578 310.85 28.578s227.93-10.148 310.85-28.574c89.906-19.98 121.94-44.07 121.94-59.953-4.3867-13.02-10.285-21.543-19.672-19.672z"/>
 <path d="m600 416.84c-165.55 0-339.28-23.617-405.21-68.105-5.2305 5.2812-7.9023 10.379-7.9023 15.199v13.562c0 15.922 30.543 40.035 116.27 59.973 79.176 18.41 184.6 28.551 296.84 28.551s217.67-10.141 296.84-28.551c85.723-19.938 116.27-44.055 116.27-59.973v-13.562c0-4.8242-2.6719-9.918-7.9023-15.199-65.934 44.488-239.66 68.105-405.21 68.105z"/>
 <path d="m600 196.72c-118.93 0-230.84-10.312-315.12-29.043-42.469-9.4414-75.172-20.266-97.996-32.398v110.62c0 15.922 30.543 40.035 116.27 59.973 79.172 18.41 184.59 28.551 296.84 28.551s217.67-10.141 296.84-28.551c85.727-19.938 116.27-44.051 116.27-59.973v-110.62c-22.828 12.133-55.531 22.957-98 32.398-84.277 18.727-196.19 29.043-315.11 29.043z"/>
 <path d="m600 485.69c-165.55 0-339.28-23.617-405.21-68.105-5.2305 5.2812-7.9023 10.379-7.9023 15.199v13.562c0 15.922 30.543 40.035 116.27 59.973 79.176 18.41 184.6 28.551 296.84 28.551s217.67-10.141 296.84-28.551c85.723-19.938 116.27-44.051 116.27-59.973v-13.562c0-4.8242-2.6719-9.918-7.9062-15.199-65.93 44.492-239.66 68.105-405.21 68.105z"/>
 <path d="m600 623.4c-165.55 0-339.28-23.617-405.21-68.105-5.2305 5.2773-7.9023 10.375-7.9023 15.199v13.562c0 15.922 30.543 40.035 116.27 59.973 79.176 18.41 184.6 28.551 296.84 28.551s217.67-10.141 296.84-28.551c85.723-19.938 116.27-44.055 116.27-59.973v-13.562c0-4.8242-2.6719-9.918-7.9023-15.199-65.934 44.484-239.66 68.105-405.21 68.105z"/>
 <path d="m600 554.55c-165.55 0-339.28-23.617-405.21-68.105-5.2305 5.2773-7.9023 10.375-7.9023 15.199v13.562c0 15.922 30.543 40.035 116.27 59.973 79.176 18.41 184.6 28.551 296.84 28.551s217.67-10.141 296.84-28.551c85.723-19.941 116.27-44.055 116.27-59.977v-13.559c0-4.8242-2.6719-9.918-7.9062-15.199-65.93 44.488-239.66 68.105-405.21 68.105z"/>
</svg>
