<?xml version="1.0" encoding="UTF-8"?>
<svg width="1200pt" height="1200pt" version="1.1" viewBox="0 0 1200 1200" xmlns="http://www.w3.org/2000/svg">
 <path d="m560.77 966.2h78.434c-16.199-17.809-30.961-42.238-39.191-70.066-8.2344 27.828-22.973 52.258-39.242 70.066z"/>
 <path d="m1043.5 525.02c-21.059 1.1055-43.715 2.293-67.68 5.3281-1.5586 0.19141-23.629 2.4492-38.293 5.9414-4.8594 38.914-16.055 81.312-38.508 127.7-43.414 89.641-109.8 117.47-163.14 139.85-38.34 16.078-71.473 29.953-88.738 61.883-0.85156 1.5586-1.3906 3.2031-2.125 4.8125 8.1836-1.7656 25.68-5.2812 43.512-5.6172 10.043-0.070313 40.117 1.2734 54.562 2.5195 58.344 5.0625 124.61 10.848 200.96-45.516 98.711-72.91 129.23-156.35 153.76-223.39 12.551-34.332 23.844-65.062 42.145-87.938-27.238 10.789-59.941 12.531-96.457 14.426zm-244.48 320.83c-0.28906 0-0.61328-0.023438-0.92578-0.070313l-43.738-6.6016c6.8164-2.9297 13.836-6.0586 21.012-9.457l24.574 3.6836c3.4219 0.51562 5.7734 3.6836 5.2578 7.1055-0.46484 3.1211-3.1289 5.3398-6.1797 5.3398zm76.371-20.844c-0.28906 0-0.61328-0.023438-0.92578-0.070313l-69.781-10.5c5.5195-3.1797 11.039-6.5039 16.598-10.141l55.043 8.2812c3.4219 0.51562 5.7734 3.6836 5.2578 7.1055-0.46875 3.1055-3.1328 5.3242-6.1914 5.3242zm49.559-26.652c-0.28906 0-0.61328-0.023437-0.92578-0.070313l-78.434-11.773c4.1992-3.3945 8.3516-6.9844 12.504-10.777l67.777 10.188c3.4219 0.51562 5.7734 3.6953 5.2578 7.1172-0.46875 3.0859-3.1328 5.3164-6.1797 5.3164zm37.234-27.637c-0.28906 0-0.61328-0.023437-0.92578-0.070312l-85.305-12.875c3.2773-3.5625 6.5273-7.2617 9.7422-11.137l77.398 11.652c3.4219 0.51562 5.7734 3.6836 5.2578 7.1172-0.45313 3.0938-3.1172 5.3125-6.168 5.3125zm26.438-27.684c-0.28906 0-0.61328-0.023437-0.92578-0.070312l-89.039-13.367c2.6641-3.7422 5.3281-7.4766 7.8945-11.461l82.992 12.457c3.4219 0.51562 5.7734 3.6836 5.2578 7.1172-0.46875 3.1055-3.1328 5.3242-6.1797 5.3242zm30.469-29.242c-0.28906 0-0.61328-0.023437-0.92578-0.070313l-100.08-15.047c2.0742-3.7812 4.1055-7.7539 6.1328-11.723l95.797 14.41c3.4219 0.51562 5.7734 3.6836 5.2578 7.1172-0.47266 3.0781-3.1367 5.3125-6.1836 5.3125zm9.625-31.367c-0.30078 0-0.61328-0.023438-0.92578-0.070313l-84.324-12.66 14.219-10.5 71.953 10.801c3.4219 0.51562 5.7617 3.6953 5.2578 7.1172-0.46875 3.0781-3.1328 5.3125-6.1797 5.3125zm20.734-28.598c-0.28906 0-0.61328-0.023437-0.92578-0.070312l-69.469-10.355 14.242-10.535 57.07 8.5312c3.4219 0.51562 5.7617 3.6836 5.2578 7.1055-0.45312 3.1055-3.1172 5.3242-6.1758 5.3242zm5.0156-30.191c-0.30078 0-0.61328-0.023437-0.92578-0.070313l-39.586-5.9414 14.219-10.512 27.215 4.0781c3.4219 0.51563 5.7617 3.6953 5.2578 7.1172-0.46875 3.1094-3.1328 5.3281-6.1797 5.3281zm13.945-30.098c-0.28906 0-0.61328-0.023438-0.92578-0.070313l-17.293-2.5938 14.242-10.5 4.9062 0.73047c3.4219 0.51562 5.7734 3.6836 5.2578 7.1172-0.46484 3.0859-3.1289 5.3164-6.1875 5.3164z"/>
 <path d="m661.29 773.29c-27.516 31.152-51.238 58.078-52.871 94.355-0.80469 18.156 4.0547 34.836 11.016 48.887-1.2734-35.891 10.801-56.652 30.277-77.797 20.23-21.938 51.109-33.742 81.383-46.453 54.07-22.668 115.37-48.371 156.73-133.77 53.438-110.41 41.652-198.45 32.207-269.17-4.8594-36.254-9.1445-68.746-3.5625-97.512-19.105 22.211-47.23 38.977-78.695 57.66-27 16.031-56.855 33.84-86.426 58.129-14.027 11.09-23.988 21.938-28.934 27.215 14.566 39.359 24.758 85.199 24.758 141.47 0 99.617-47.617 153.59-85.883 196.98zm108.38-25.73-64.285 22.332c4.3672-5.5938 8.6758-11.605 12.949-17.734l47.23-16.414c3.2773-1.0781 6.8164 0.58984 7.9688 3.8633 1.1289 3.2383-0.58594 6.8008-3.8633 7.9531zm112.34-358.85 4.7148-1.6328c3.3008-1.0547 6.8164 0.58984 7.9688 3.8633 1.1289 3.2539-0.58984 6.8164-3.8633 7.9688l-16.547 5.7617zm-19.645 40.586 25.992-9.0586c3.3008-1.0547 6.8164 0.58984 7.9688 3.8633 1.1289 3.2539-0.58984 6.8164-3.8633 7.9688l-37.824 13.164zm-18.887 38.977 54.504-19.008c3.2539-1.0781 6.8164 0.58984 7.9688 3.8633 1.1289 3.2539-0.58984 6.8164-3.8633 7.9688l-66.336 23.137zm-19.297 39.863 68.723-23.914c3.2539-1.0664 6.8398 0.58984 7.9688 3.8633 1.1289 3.2539-0.58984 6.8164-3.8633 7.9688l-80.555 28.02zm-20.016 41.293 94.801-32.965c3.2773-1.0547 6.8164 0.58984 7.9688 3.8633 1.1289 3.2539-0.58984 6.8164-3.8633 7.9688l-106.6 37.066zm-20.617 42.609 102.09-35.496c3.3008-1.0781 6.8164 0.58984 7.9688 3.8633 1.1289 3.2539-0.58984 6.8164-3.8633 7.9688l-113.9 39.625zm-15.227 38.363 106.75-37.094c3.2539-1.0781 6.8164 0.58984 7.9688 3.8633 1.1289 3.2539-0.58984 6.8164-3.8633 7.9688l-113.52 39.457c1.0039-4.6172 1.8789-9.3594 2.6602-14.195zm-8.7969 37.898 95.41-33.18c3.2773-1.0781 6.8164 0.58984 7.9688 3.8633 1.1289 3.2539-0.58984 6.8164-3.8633 7.9688l-104.33 36.289c1.7656-4.8008 3.2539-9.9141 4.8125-14.941zm63.973 13.465c3.2773-1.0664 6.8164 0.58984 7.9688 3.8633 1.1289 3.2773-0.58984 6.8164-3.8633 7.9688l-92.629 32.148c2.9297-5.207 5.7109-10.609 8.4258-16.176z"/>
 <path d="m464.06 803.86c-53.34-22.379-119.72-50.207-163.14-139.85-22.453-46.402-33.648-88.789-38.508-127.7-14.664-3.4922-36.719-5.7461-38.293-5.9414-23.965-3.0234-46.621-4.2227-67.68-5.3281-36.512-1.9062-69.203-3.6484-96.441-14.422 18.301 22.871 29.594 53.605 42.145 87.938 24.527 67.043 55.043 150.48 153.76 223.39 76.355 56.363 142.61 50.578 200.96 45.516 14.438-1.2461 44.52-2.5938 54.551-2.5195 17.832 0.34766 35.328 3.8633 43.512 5.6172-0.73047-1.6094-1.2734-3.2539-2.125-4.8125-17.27-31.934-50.402-45.805-88.742-61.887zm-332.53-210.31c-3.0469 0-5.7109-2.2188-6.1797-5.3281-0.51562-3.4219 1.8359-6.6016 5.2578-7.1172l4.9062-0.73047 14.242 10.5-17.305 2.5938c-0.29688 0.046874-0.62109 0.082031-0.92188 0.082031zm7.7773 24.77c-0.51562-3.4219 1.8359-6.6016 5.2578-7.1172l27.215-4.0781 14.219 10.512-39.574 5.9414c-0.3125 0.046876-0.63672 0.070313-0.92578 0.070313-3.0586 0-5.7227-2.2188-6.1914-5.3281zm11.195 35.52c-3.0586 0-5.7227-2.2188-6.1797-5.3281-0.51562-3.4219 1.8359-6.6016 5.2578-7.1055l57.07-8.5312 14.242 10.535-69.457 10.355c-0.33203 0.050782-0.64453 0.074219-0.93359 0.074219zm20.734 28.598c-3.0586 0-5.7227-2.2188-6.1797-5.3281-0.51562-3.4219 1.8359-6.6016 5.2578-7.1172l71.953-10.801 14.219 10.5-84.312 12.66c-0.32422 0.058594-0.63672 0.085938-0.9375 0.085938zm9.625 31.367c-3.0586 0-5.7109-2.2188-6.1797-5.3281-0.51562-3.4219 1.8359-6.6016 5.2578-7.1172l95.797-14.41c2.0273 3.9844 4.0547 7.9453 6.1328 11.723l-100.08 15.047c-0.31641 0.0625-0.62891 0.085937-0.92969 0.085937zm30.469 29.242c-3.0586 0-5.7109-2.2188-6.1797-5.3281-0.51562-3.4219 1.8359-6.6016 5.2578-7.1172l83.004-12.457c2.5664 3.9844 5.2305 7.7148 7.8945 11.461l-89.027 13.367c-0.33594 0.050781-0.64844 0.074218-0.94922 0.074218zm27.371 27.613c-0.3125 0.046875-0.63672 0.070312-0.92578 0.070312-3.0469 0-5.7109-2.2188-6.1797-5.3281-0.51562-3.4219 1.8359-6.6016 5.2578-7.1172l77.398-11.652c3.2266 3.8867 6.4805 7.5703 9.7422 11.137zm36.301 27.707c-3.0586 0-5.7109-2.2188-6.1797-5.3281-0.51562-3.4219 1.8359-6.6016 5.2578-7.1172l67.777-10.188c4.1523 3.793 8.3047 7.3789 12.504 10.777l-78.434 11.773c-0.3125 0.058594-0.625 0.082031-0.92578 0.082031zm49.547 26.652c-3.0586 0-5.7109-2.2188-6.1797-5.3281-0.51562-3.4219 1.8359-6.6016 5.2578-7.1055l55.043-8.2812c5.543 3.6367 11.062 6.9609 16.586 10.141l-69.781 10.5c-0.3125 0.050781-0.625 0.074219-0.92578 0.074219zm77.305 20.773c-0.3125 0.046875-0.63672 0.070313-0.92578 0.070313-3.0586 0-5.7109-2.2188-6.1797-5.3281-0.51562-3.4219 1.8359-6.6016 5.2578-7.1055l24.574-3.6836c7.1875 3.3945 14.195 6.5273 21.012 9.457z"/>
 <path d="m468.9 792.3c30.277 12.707 61.152 24.504 81.383 46.453 19.477 21.133 31.547 41.902 30.277 77.797 6.9609-14.051 11.832-30.73 11.016-48.887-1.6328-36.289-25.355-63.203-52.871-94.355-38.258-43.391-85.883-97.367-85.883-196.98 0-56.27 10.188-102.11 24.758-141.47-4.9336-5.2812-14.902-16.129-28.934-27.215-29.566-24.289-59.426-42.098-86.426-58.129-31.465-18.695-59.594-35.449-78.695-57.66 5.5664 28.754 1.2969 61.246-3.5625 97.512-9.457 70.727-21.227 158.76 32.207 269.17 41.363 85.375 102.67 111.08 156.73 133.76zm25.707-22.406-64.285-22.332c-3.2773-1.1523-4.9805-4.7148-3.8633-7.9688 1.1523-3.2773 4.6914-4.9336 7.9688-3.8633l47.23 16.414c4.2852 6.1484 8.5781 12.16 12.949 17.75zm-38.016-60.324c2.7109 5.5664 5.4961 10.969 8.4258 16.176l-92.629-32.148c-3.2773-1.1523-4.9805-4.6914-3.8633-7.9688 1.1523-3.2773 4.6914-4.9336 7.9688-3.8633zm-11.305-26.34-104.33-36.289c-3.2773-1.1523-4.9922-4.7148-3.8633-7.9688 1.1523-3.2773 4.6914-4.9336 7.9688-3.8633l95.41 33.18c1.5586 5.043 3.0469 10.156 4.8125 14.941zm-10.957-38.625-113.51-39.457c-3.2773-1.1523-4.9805-4.7148-3.8633-7.9688 1.1523-3.2773 4.7148-4.9336 7.9688-3.8633l106.75 37.094c0.77734 4.832 1.6523 9.5742 2.6484 14.195zm-50.797-120.53-80.555-28.02c-3.2773-1.1523-4.9805-4.7148-3.8633-7.9688 1.1289-3.2773 4.7148-4.9336 7.9688-3.8633l68.723 23.914zm-78.227-133.14c1.1523-3.2773 4.668-4.9062 7.9688-3.8633l4.7148 1.6328 7.7148 15.949-16.547-5.7617c-3.2656-1.1289-4.9805-4.707-3.8516-7.957zm-1.6328 33.156c1.1523-3.2773 4.668-4.9062 7.9688-3.8633l25.992 9.0586 7.7148 15.926-37.824-13.164c-3.2617-1.1289-4.9805-4.707-3.8516-7.957zm-9.6367 29.027c1.1523-3.2773 4.7148-4.9336 7.9688-3.8633l54.504 19.008 7.7148 15.949-66.336-23.137c-3.2617-1.1406-4.9648-4.707-3.8516-7.957zm-0.97266 67.211c1.1523-3.2773 4.6914-4.9062 7.9688-3.8633l94.801 32.965 7.6914 15.926-106.6-37.066c-3.2734-1.1445-4.9883-4.707-3.8633-7.9609zm13.344 40.078c1.1523-3.2773 4.668-4.9336 7.9688-3.8633l102.09 35.496 7.7148 15.961-113.9-39.625c-3.2891-1.1523-4.9922-4.7266-3.8672-7.9688z"/>
 <path d="m573.96 528.94c-1.6094 0-3.2266-0.61328-4.4414-1.8359l-81.758-81.781c-6.5508 18.77-11.879 39.191-15.684 61.43l106.29 106.31c2.4492 2.4492 2.4492 6.3945 0 8.8438-1.2227 1.2227-2.832 1.8359-4.4023 1.8359-1.6094 0-3.2266-0.61328-4.4414-1.8359l-99.781-99.805c-2.1953 17.074-3.7695 34.848-3.7695 54.215 0 6.5508 0.68359 12.383 1.0781 18.539 1.1289 0.23828 2.293 0.44531 3.1328 1.2969l108.19 108.21c2.4492 2.4375 2.4492 6.3945 0 8.8438-1.2227 1.2227-2.832 1.8359-4.4023 1.8359-1.6094 0-3.2266-0.61328-4.4414-1.8359l-101.2-101.26c9.4336 72.348 46.812 114.96 80.387 153.02 21.742 24.625 42.312 48.254 51.312 76.715 8.9414-28.465 29.566-52.094 51.266-76.691 38.797-43.98 82.777-93.828 82.777-188.7 0-122.7-49.008-196.8-88.344-256.34-20.184-30.492-38.16-57.852-45.684-86.172-7.5234 28.32-25.559 55.68-45.684 86.172-0.19141 0.28906-0.44531 0.63672-0.63672 0.92578l24.672 24.672c2.4492 2.4492 2.4492 6.3945 0 8.8438-1.2227 1.2227-2.7852 1.8359-4.4023 1.8359-1.6094 0-3.2266-0.61328-4.4414-1.8359l-22.824-22.824c-8.8906 13.535-17.879 27.926-26.734 43.441 0.53906 0.28906 1.1289 0.21484 1.5586 0.66016l56.832 56.832c2.4492 2.4492 2.4492 6.3945 0 8.8438-1.2227 1.2227-2.7852 1.8359-4.4023 1.8359-1.6094 0-3.2266-0.61328-4.4414-1.8359l-55.512-55.512c-7.8242 14.531-15.145 30.156-21.695 47.027 0.38281 0.23828 0.875 0.16797 1.2227 0.51562l84.828 84.852c2.4492 2.4492 2.4492 6.3945 0 8.8438-1.2461 1.25-2.8555 1.8633-4.4258 1.8633zm37.297-192.97 3.5156-3.5156c2.3984-2.4258 6.3477-2.4727 8.8438 0 2.4492 2.4492 2.4492 6.4062 0 8.8438l-12.359 12.383zm0 45.082 19.402-19.477c2.4375-2.4258 6.3945-2.4727 8.8438 0 2.4375 2.4375 2.4375 6.3945 0 8.8438l-28.246 28.344zm0 43.297 40.754-40.824c2.4375-2.4102 6.3945-2.4727 8.8438 0 2.4375 2.4492 2.4375 6.4062 0 8.8438l-49.598 49.691zm0 44.293 51.406-51.457c2.3984-2.4102 6.3477-2.4727 8.8438 0 2.4375 2.4492 2.4375 6.4062 0 8.8438l-60.254 60.301zm0 45.91 70.906-70.98c2.4375-2.4258 6.3945-2.4727 8.8438 0 2.4492 2.4492 2.4492 6.4062 0 8.8438l-79.754 79.824zm0 47.328 76.379-76.402c2.4492-2.4492 6.4062-2.4492 8.8438 0 2.4492 2.4492 2.4492 6.3945 0 8.8438l-85.223 85.246zm0 44.195 82.922-82.922c2.4492-2.4492 6.4062-2.4492 8.8438 0 2.4492 2.4375 2.4492 6.3945 0 8.8438l-91.766 91.766zm0 46.551 83.016-83.074c2.4492-2.4492 6.4062-2.4492 8.8438 0 2.4492 2.4492 2.4492 6.3945 0 8.8438l-91.859 91.922zm0 47.613 75.012-75.012c2.4961-2.4727 6.4453-2.4258 8.8438 0 2.4492 2.4375 2.4492 6.3945 0 8.8438l-83.855 83.855zm0 45.254 46.414-46.43c2.4961-2.4727 6.457-2.4102 8.8438 0 2.4375 2.4492 2.4375 6.4062 0 8.8438l-55.273 55.262v-17.676z"/>
</svg>
