<?xml version="1.0" encoding="UTF-8"?>
<svg width="1200pt" height="1200pt" version="1.1" viewBox="0 0 1200 1200" xmlns="http://www.w3.org/2000/svg">
 <path d="m569.25 449.72h61.492l37.516 300.56h-136.52z"/>
 <path d="m696.12 750.29-49.984-297.74c-0.30469-1.8281-2.0195-3.0781-3.8516-2.8086-1.8359 0.26953-3.1172 1.957-2.8867 3.7969l37.031 296.75z"/>
 <path d="m946.37 742.19h-243.39l-4.6484-27.844h242.79z"/>
 <path d="m841.02 615.11h-159.38l4.2227 24.973h159.91z"/>
 <path d="m692.75 681.24 4.2227 24.973h215.84l-4.7109-24.973z"/>
 <path d="m687.2 648.17 4.1602 24.973h187.88l-4.7109-24.973z"/>
 <path d="m676.09 582.04 4.2227 24.973h131.96l-4.7109-24.973z"/>
 <path d="m778.72 573.9-4.7109-24.973h-103.45l4.2227 24.973z"/>
 <path d="m740.48 515.86h-75.488l4.1602 24.973h76.039z"/>
 <path d="m659.43 482.79 4.1602 24.973h48.07l-4.7109-24.973z"/>
 <path d="m653.88 449.72 4.1602 24.93h20.102l-4.7109-24.93z"/>
 <path d="m523.57 750.29 37.035-296.75c0.23438-1.8398-1.0469-3.5273-2.8828-3.7969s-3.5469 0.98047-3.8516 2.8086l-49.984 297.74z"/>
 <path d="m253.63 742.19h243.38l4.7109-27.844-242.78 0.003906z"/>
 <path d="m358.98 615.11h159.37l-4.1602 24.973h-159.92z"/>
 <path d="m507.25 681.24-4.2227 24.973h-215.84l4.7109-24.973z"/>
 <path d="m512.8 648.17-4.1602 24.973h-187.88l4.7109-24.973z"/>
 <path d="m523.91 582.04-4.2227 24.973h-131.96l4.7109-24.973z"/>
 <path d="m421.27 573.9 4.7109-24.973h103.45l-4.1602 24.973z"/>
 <path d="m459.53 515.86h75.488l-4.2227 24.973h-76.031z"/>
 <path d="m540.57 482.79-4.2227 24.973h-48.066l4.7734-24.973z"/>
 <path d="m546.12 449.72-4.1602 24.93h-20.109l4.7109-24.93z"/>
</svg>
